<svg xmlns="http://www.w3.org/2000/svg" width="20.848" height="20.848" viewBox="0 0 20.848 20.848"><g transform="translate(-306.612 -806.294)"><g transform="translate(317.036 816.718)"><g transform="translate(-10.424 -10.424)"><circle cx="10.424" cy="10.424" r="10.424" fill="#006c35"/><g transform="translate(4.733 6.63)"><path d="M99.808,199.839h0c-.183.04-.178.2-.06.271-1.935,0-4.905-.028-5.542-.028-.356,0-1.484-.036-1.505-.036a1.246,1.246,0,0,0,1.05.365l5.976-.009a.3.3,0,0,0,.071.351l0,0,.008,0h0a.123.123,0,0,0,.133-.064c.122.009.807.017.87,0h0c.042.053.084.1.165.094.141-.026.252-.039.256-.281,0,0-.014-.412-.335-.387-.076.01-.289.028-.289.028-.247-.025-.427-.027-.7-.036.026-.027.071-.138.015-.179a.1.1,0,0,0-.066-.014h-.007l0,0,0,0c-.014-.017-.022-.059-.031-.07h-.006Zm.131.59h0c.282.012.548,0,.83.014a.077.077,0,0,1-.007.119l0,0h-.008l-.237-.006a.04.04,0,0,0,0-.011c-.022-.054-.179-.051-.216-.008l0,0,0,0,0,0a.032.032,0,0,0,0,.006.039.039,0,0,0,0,.007,2.631,2.631,0,0,1-.359-.007c-.036-.038-.032-.107.011-.124Z" transform="translate(-91.277 -193.199)" fill="#fff"/><path d="M80.812,102.59c.039.019.142-.1.138-.243.011-.075-.029-.352-.131-.4a.087.087,0,0,0-.037,0,.094.094,0,0,0-.081.127c-.015.044.073.2.1.278.02.058-.026.222.016.239Zm-8.085-2.35c.125.055.36.032.351-.154,0-.016,0-.072-.006-.087a.055.055,0,0,0-.059-.034h0a.067.067,0,0,0-.052.049c-.005.019.009.049-.009.059s-.05,0-.049-.048a.084.084,0,0,0-.021-.044.04.04,0,0,0-.028-.007c-.017,0-.017.005-.027.018a.132.132,0,0,0-.01.043.026.026,0,0,1-.025.027c-.016,0-.013,0-.026-.007s-.017-.011-.017-.025a.138.138,0,0,0-.009-.046.055.055,0,0,0-.03-.016c-.068,0-.073.073-.07.1a.165.165,0,0,0,.086.169Zm-1.005-.007c.019.044-.019.186.021.2s.087-.1.107-.2c.011-.057,0-.253-.142-.293a.121.121,0,0,0-.023,0c-.055,0-.116.03-.092.091-.014.033.108.146.13.208Zm4.428.053a.871.871,0,0,0,.077-.332c-.011-.058-.039-.086-.07-.084s-.065.036-.093.1a1.5,1.5,0,0,0-.049.3c-.019.076.086.108.134.011Zm-.895-.05c.036.047.071.042.142.009a.14.14,0,0,0,.069-.092c.017-.078-.089.037-.1-.05s.044-.114.109-.192c0-.037,0-.067-.024-.068a.118.118,0,0,0-.054.019.369.369,0,0,0-.17.263c0,.069-.017.068.031.112ZM71.6,101.47c.366.032.164-.57.3-.68.025-.054.071-.055.075.013v.512c0,.166.115.216.208.25.1-.007.16-.005.2.082l.046.886s.222.059.232-.5a4.772,4.772,0,0,1-.023-.665c0-.062.089-.066.149-.035.1.062.138.139.287.108.226-.057.362-.159.366-.319a1.291,1.291,0,0,0-.1-.457c.01-.028-.043-.1-.033-.127.041.059.1.054.116,0a.456.456,0,0,0-.2-.277.144.144,0,0,0-.24.084.7.7,0,0,0,.185.493.451.451,0,0,1,.047.246.151.151,0,0,1-.186-.033s-.18-.124-.18-.152c.048-.282.01-.314-.016-.393-.018-.108-.074-.142-.119-.216a.086.086,0,0,0-.135,0,.69.69,0,0,0,.015.522c.042.112.105.183.075.183-.025.063-.076.049-.113-.025a1.691,1.691,0,0,1-.064-.479c-.016-.126-.034-.4-.124-.464a.088.088,0,0,0-.08-.038.111.111,0,0,0-.085.066,2.113,2.113,0,0,0,.009.366,3.707,3.707,0,0,1,.111.588c.008.278-.174.12-.166-.018a1.161,1.161,0,0,0-.007-.532.105.105,0,0,0-.136-.077c-.057,0-.205.145-.247.392a2.159,2.159,0,0,0-.05.239c-.02.127-.112.217-.175-.018-.055-.17-.089-.591-.181-.493-.026.328-.058.906.245.965Zm2.358-.557h0a1.48,1.48,0,0,0,.35,0h0a4.755,4.755,0,0,0,.579-.538c-.025-.02-.048-.034-.072-.054s-.024-.042,0-.063a.166.166,0,0,0,.019-.267.331.331,0,0,0-.143-.026.271.271,0,0,0-.114.029.189.189,0,0,0-.037.264c.064.028.127.087.085.119-.18.177-.649.474-.673.528h0a.008.008,0,0,0,0,0h0v0Zm.71-.79h.006a.093.093,0,0,1,.082.057c.019.037.009.073-.021.08a.089.089,0,0,1-.088-.055c-.019-.037-.009-.074.021-.081Zm.662,1.086c.146.056.239-.2.3-.482.041-.079.072-.088.093-.047-.005.374.029.457.133.571a.358.358,0,0,0,.44.007l.181-.167a.116.116,0,0,1,.15-.007c.055.046.048.126.167.182a.389.389,0,0,0,.362-.07c.066-.105.083-.141.113-.181.047-.058.129-.032.129-.012s-.055.064-.023.123c.056.039.07.013.1.005.118-.052.207-.288.207-.288.005-.088-.049-.081-.084-.063s-.048.034-.093.06c-.058.009-.169.043-.225-.036a2.931,2.931,0,0,1-.1-.323c0-.007-.076-.151-.006-.16.035.007.111.024.123-.034.037-.057-.08-.218-.159-.3a.181.181,0,0,0-.256-.007c-.065.055-.055.116-.068.174a.256.256,0,0,0,.06.237.68.68,0,0,1,.143.479.213.213,0,0,1-.188.088c-.05-.011-.131-.03-.174-.324-.033-.223.008-.534-.094-.68-.023-.055-.043-.109-.076-.1s-.044.026-.078.083a.328.328,0,0,0-.053.334.918.918,0,0,1,.059.52,1,1,0,0,1-.109.141.189.189,0,0,1-.23.029.23.23,0,0,1-.137-.178,2.265,2.265,0,0,0-.021-.574.118.118,0,0,0-.189-.035,1.273,1.273,0,0,0-.342.647c-.053.157-.109.112-.149.048-.1-.083-.1-.733-.219-.626-.186.49.107,1.027.31.975Zm-.767-.349a.227.227,0,0,0-.085.315.177.177,0,0,0,.18.054c.109.013.173-.188.173-.188s0-.057-.126.05c-.054.011-.062-.009-.075-.037a.232.232,0,0,1,.017-.157c.012-.031,0-.051-.026-.054a.112.112,0,0,0-.059.016Zm7.167,2.5c-.024-.025-.077-.011-.113-.013-.017,0-.074-.009-.047-.054a.3.3,0,0,0,.046-.081c.017-.034,0-.058-.059-.076a.421.421,0,0,0-.075-.007c-.023,0-.046,0-.081.007s-.05.022-.057.064c0,.063.045.06.088.085.025.029.041.056,0,.1l-.11.088c-.019.03-.031.077.028.091.109.028.36-.122.36-.126a.07.07,0,0,0,.024-.082Zm.78-2.645a.982.982,0,0,1-.025-.2c.017-.039.1,0,.131-.041s-.217-.349-.309-.481c-.018-.033-.029-.06-.046-.059s-.028.02-.052.066a.566.566,0,0,0-.053.373,18.936,18.936,0,0,1,.258,2.422.724.724,0,0,1-.051.2,1.642,1.642,0,0,1-.252.271c-.083.057-.261.112-.319.155-.184.1-.186.211-.036.215a.95.95,0,0,0,.77-.338,1.059,1.059,0,0,0,.125-.438,9.427,9.427,0,0,0-.14-2.143ZM71.4,102.273l.953-.421c-.052-.072,0-.136-.2-.141-.3.005-.742.364-.754.563Zm.17.91c-.079.148-.112.047-.119-.036a1.756,1.756,0,0,1,.023-.416c.01-.059.009-.079,0-.079s-.023.021-.043.045a.812.812,0,0,0-.1.773.22.22,0,0,0,.2.062.33.33,0,0,0,.135-.332c-.038-.054-.067-.063-.1-.016Zm2.246-.4a2.382,2.382,0,0,0,.041-.739h.012a.322.322,0,0,0,.436-.035.077.077,0,0,1,.111-.011.27.27,0,0,0,.392-.1,3,3,0,0,0,.054-.444.518.518,0,0,0-.174.067.042.042,0,0,0-.012.021l-.021.127a.039.039,0,0,1,0,.011.031.031,0,0,1-.015.013c-.029.014-.079.007-.082-.032-.039-.163-.2-.184-.3.068-.065.049-.185.058-.2-.014.016-.17-.058-.192-.207-.112l-.143-.992c.062,0,.119.04.175-.026a1.806,1.806,0,0,0-.264-.566h0L73.6,100l0,0s0,0,0,0a.025.025,0,0,0-.01,0h-.02a.541.541,0,0,0-.062.016.167.167,0,0,0-.128.205l.244,1.423a.112.112,0,0,1-.111.132c-.12-.075-.15-.227-.355-.22a.388.388,0,0,0-.339.294.658.658,0,0,0,0,.337.315.315,0,0,0,.339.077c.09-.034.164-.116.2-.1h0c.02.032,0,.3-.425.507-.26.108-.467.133-.578-.062-.069-.122.005-.588-.165-.48-.5,1.193,1.177,1.36,1.364.049.012-.037.049-.074.075-.065a.055.055,0,0,1,.026.046c-.039,1.187-1.3,1.268-1.513.895a1.068,1.068,0,0,1-.074-.4.192.192,0,0,0-.051-.128c-.051-.035-.119.057-.134.217a1.325,1.325,0,0,0-.015.288c.067.937,1.689.535,1.952-.24Zm-.626-.811h0c-.013.014-.057.009-.089.009a.088.088,0,0,1-.08-.036c-.011-.032.022-.063.037-.087h0l.007-.007a.1.1,0,0,1,.052-.021h.012a.08.08,0,0,1,.077.052.085.085,0,0,1-.017.09Zm6.951,1.535-.282.028Zm-1.59-2.43c.125.055.361.031.352-.155,0-.016,0-.072-.007-.087a.054.054,0,0,0-.059-.034.067.067,0,0,0-.052.05c-.005.019.01.049-.009.058s-.051,0-.05-.047a.086.086,0,0,0-.021-.045.041.041,0,0,0-.028-.007c-.017,0-.017.005-.027.018a.137.137,0,0,0-.01.043c0,.018-.009.025-.024.027s-.013,0-.027-.007-.017-.011-.017-.024a.139.139,0,0,0-.009-.046.052.052,0,0,0-.03-.014c-.069,0-.073.072-.069.1a.165.165,0,0,0,.085.17Zm2.022.48c0-.109.014-.253.02-.343,0-.034.011-.071.047-.08s.1.033.1,0a.438.438,0,0,0-.064-.219.122.122,0,0,0-.094-.048.137.137,0,0,0-.144.112c0,.046.022.071.018.112-.006.024-.033.039-.1.011.01-.009-.041-.075-.041-.075a.17.17,0,0,0-.158.027.206.206,0,0,0-.014.176.823.823,0,0,0,.43.328Zm-.781,1.5c.087,0,.188-.184.231-.367a2.876,2.876,0,0,0-.023-.553c-.007-.148-.182-1.349-.217-1.461-.043-.212.17-.028.147-.151-.074-.155-.257-.382-.314-.516-.022-.036-.024-.07-.042-.067s-.026.016-.055.052a1.074,1.074,0,0,0-.07.527,10.609,10.609,0,0,1,.343,2.537Zm-.655-.181a2.394,2.394,0,0,1-.809.544c-.034.035.085.185.238.185a.9.9,0,0,0,.692-.51.868.868,0,0,0,.157-.392,7.886,7.886,0,0,0-.172-1.984.306.306,0,0,1,.007-.139c.017-.018.073,0,.1-.045s-.117-.384-.209-.515c-.018-.033-.03-.059-.046-.058s-.028.019-.051.065a.694.694,0,0,0-.09.373c.122.781.16,1.465.24,2.247a.292.292,0,0,1-.06.229Zm.527-.32-1.028-2.2c.045.115-.034.226.012.242s.1-.119.125-.246A.37.37,0,0,0,78.6,100l-.027,0c-.064,0-.135.036-.108.11-.016.041.138.178.163.253Zm2.264,1.2h-.01l-.6.394c-.058.047-.029.213,0,.194a2.338,2.338,0,0,0,.615-.393c.025,0,.038-.188-.01-.2Zm-.409-1.066q.265.3.518.611c.037.436.047.836.084,1.272-.005.187-.068.435-.127.458a.146.146,0,0,1-.151-.005,1.68,1.68,0,0,1-.219-.27.14.14,0,0,0-.213,0,2.651,2.651,0,0,0-.375.652c-.031.045-.118.083-.214,0a.83.83,0,0,1-.13-.645l0,.011a.656.656,0,0,0-.072.684.553.553,0,0,0,.271.284.2.2,0,0,0,.282-.028c.128-.123.13-.437.19-.5a.116.116,0,0,1,.2-.044.483.483,0,0,0,.183.146.327.327,0,0,0,.4.026.443.443,0,0,0,.215-.242,7.818,7.818,0,0,0,.017-1.366l.269.359a8.2,8.2,0,0,1,.044,1.119c-.009.072.272-.214.27-.349v-.326c.136.2.268.4.392.61.077-.037.051-.441,0-.5-.13-.2-.3-.42-.427-.588-.026-.213-.06-.464-.076-.541-.025-.12-.049-.3-.087-.443a1.392,1.392,0,0,1-.031-.25c.015-.04.073,0,.1-.045a1.515,1.515,0,0,0-.243-.623c-.035-.058-.1-.038-.174.056-.072.062-.046.2-.018.337.071.342.135.69.185,1.038l-.318-.43-.014-.068c0-.007-.015-.28-.029-.345,0-.026-.009-.034.021-.031a.176.176,0,0,0,.056.034c.032.005.06-.045.041-.091l-.3-.509a.085.085,0,0,0-.041-.025c-.015,0-.032.005-.051.031a.194.194,0,0,0-.074.151c.009.12.032.244.041.364l.01.048a.443.443,0,0,0-.033-.036c-.255-.247.117-.04-.049-.231a1.925,1.925,0,0,0-.3-.272c-.06-.036-.1-.1-.116.011a2.154,2.154,0,0,0-.008.307.4.4,0,0,0,.1.191Zm1.478.2c.02.058-.031.244.011.262s.094-.129.114-.266c.011-.075-.049-.338-.152-.385a.147.147,0,0,0-.025,0,.089.089,0,0,0-.1.119c-.015.044.125.193.148.274Zm-4.442,2.7a.086.086,0,0,0,.107.011,2.128,2.128,0,0,1,.368-.119c.045,0,.042-.111-.029-.115a.454.454,0,0,0-.27.076c-.057.011-.067-.02-.079-.048-.014-.071.033-.121.023-.174a.135.135,0,0,0-.069-.025.081.081,0,0,0-.042.009.76.76,0,0,0-.169.132c-.025.018-.022.032-.014.062s.053.028.091.009.076.024.071.081a.1.1,0,0,0,.01.1Zm.575-1.119h0v0a.031.031,0,0,0,0-.009l-.055-.03-1.089-.005-.03-.013,0,0h0v-.009h0a.079.079,0,0,1,.034-.019c.26-.033.722-.1.753-.512,0-.213-.1-.353-.383-.392a.362.362,0,0,0-.333.406c-.01.055.02.163-.041.175-.4.034-.837.265-.852.43h-.018a.1.1,0,0,1-.054-.1,1.866,1.866,0,0,0-.274-.859c-.056-.052-.081-.073-.1-.076h-.008a.008.008,0,0,0,0,0h0a.534.534,0,0,1-.059.049c-.055.057-.064.1-.061.212,0,.011.1.269.189.45a1.3,1.3,0,0,1,.072.607,1.556,1.556,0,0,1-.665.641.375.375,0,0,1-.278,0h0a.153.153,0,0,1-.073-.146h0a1.509,1.509,0,0,0,.668-.637.6.6,0,0,0,.018-.458.424.424,0,0,0-.112-.212h0c.037-.016.135.049.149.009a.653.653,0,0,0-.191-.326.171.171,0,0,0-.235-.013c-.081.041-.1.19-.059.32.043.1.16.115.243.313h0c0,.011.028.147-.013.2a2.556,2.556,0,0,1-.5.434l0,0H74.72v0c0-.009,0-.028,0-.061,0-.059.024-.194.022-.217h0c-.144.086-.192.349-.218.427a6.884,6.884,0,0,0-1.018.641c-.124.179.857-.206.971-.252l0,0c.022.022.023.1.089.168a.545.545,0,0,0,.53.157,1.655,1.655,0,0,0,.765-.586c.03-.04.076-.071.119-.04a1.224,1.224,0,0,0,1.085.525c.123-.138.064-.206.014-.234-.015-.011-.264-.1-.3-.188s.035-.156.153-.212a5.745,5.745,0,0,0,1-.176.766.766,0,0,1,.111-.316.157.157,0,0,1,.056-.056Zm-.9-.63a.034.034,0,0,1,0-.009l0,0h0l0-.005a.06.06,0,0,1,.028-.011.164.164,0,0,1,.085.021c.043.023.07.058.067.083a.022.022,0,0,1,0,0,.008.008,0,0,0,0,0v0h0v0l-.006.007a.116.116,0,0,1-.114-.009c-.043-.023-.069-.058-.067-.083a.011.011,0,0,0,0,0Zm-.435,1.005c-.117.037-.229.066-.23.221.015.077.012.117,0,.136l0,.005h-.006s0,0-.006,0h-.006a.223.223,0,0,1-.1-.035.575.575,0,0,1-.3-.411.108.108,0,0,1,.114-.109h.012a3.654,3.654,0,0,0,.455.048c.126.007.189.1.071.137Zm-2.555-.342c0,.045.134.1.142.2.019.042-.029.179.011.191s.089-.094.109-.195c.011-.055-.047-.248-.145-.283a.136.136,0,0,0-.047,0c-.047,0-.09.026-.071.088Zm2.195-.629c.125.055.424.023.352-.155,0-.016,0-.072-.007-.087a.055.055,0,0,0-.059-.034.067.067,0,0,0-.052.049c0,.019.01.049-.008.059s-.051,0-.05-.048a.087.087,0,0,0-.021-.045.038.038,0,0,0-.027-.007c-.017,0-.018.005-.028.018a.141.141,0,0,0-.009.043c0,.018-.009.025-.024.027s-.013,0-.026-.007-.018-.011-.018-.025a.144.144,0,0,0-.007-.046.056.056,0,0,0-.031-.014c-.068,0-.073.072-.069.1a.165.165,0,0,0,.085.17Zm1.062-1.273c.21.26.412.522.608.793.03.2.053.4.068.594a11,11,0,0,1,.012,1.416c.087,0,.227-.13.276-.325a8.725,8.725,0,0,0-.014-.979c0-.066-.006-.145-.011-.227q.356.536.664,1.1c.079-.034.061-.444.015-.5-.173-.344-.412-.683-.489-.813-.028-.047-.121-.178-.232-.33-.02-.216-.043-.4-.057-.455-.036-.229.1.026.083-.107a1.428,1.428,0,0,0-.343-.593c-.052-.068-.051-.082-.131.016a.4.4,0,0,0-.033.263c-.027-.036-.055-.07-.085-.1l-.264-.206a.3.3,0,0,0-.159-.056.072.072,0,0,0-.067.063.616.616,0,0,0,.012.242.853.853,0,0,0,.148.206Zm.445-.014c0,.022.011.044.014.067.012.049.022.1.033.145-.046-.059-.085-.106-.1-.123-.1-.115,0-.075.053-.089Z" transform="translate(-71.271 -99.842)" fill="#fff"/></g></g></g></g></svg>