<svg xmlns="http://www.w3.org/2000/svg" xmlns:xlink="http://www.w3.org/1999/xlink" width="20.848" height="20.848" viewBox="0 0 20.848 20.848"><defs><clipPath id="a"><rect width="20.848" height="20.848" fill="none"/></clipPath></defs><g clip-path="url(#a)"><path d="M757.936,530.865l1.45.871c.1-.286.2-.577.274-.871Z" transform="translate(-739.174 -517.724)" fill="#273375"/><path d="M14.5,530.865q.128.474.3.94l1.563-.94Z" transform="translate(-14.144 -517.724)" fill="#273375"/><path d="M532.127,16.745a10.374,10.374,0,0,0-5.186-3.182v6.3Z" transform="translate(-513.897 -13.227)" fill="#273375"/><path d="M766.3,281.277c-.071-.266-.152-.531-.245-.793l-1.32.793Z" transform="translate(-745.803 -273.541)" fill="#273375"/><path d="M110.457,582.068a10.377,10.377,0,0,0,5.215,3.087v-6.219Z" transform="translate(-107.723 -564.605)" fill="#273375"/><path d="M14.55,277.676c-.1.284-.191.572-.268.862h1.7Z" transform="translate(-13.928 -270.802)" fill="#273375"/><path d="M526.941,585.563a10.454,10.454,0,0,0,5.114-3.1l-5.114-3.075Z" transform="translate(-513.897 -565.048)" fill="#273375"/><path d="M112.658,11.988a10.451,10.451,0,0,0-5.292,3.172l5.292,3.178Z" transform="translate(-104.708 -11.691)" fill="#273375"/><path d="M16.539,506.943H8.807q.062.3.141.592h1.865l-1.563.94a10.371,10.371,0,0,0,.748,1.58l4.087-2.52h2.453l-5.824,3.59c.194.255.4.5.608.733l5.215-3.132v6.219q.508.124,1.025.2v-8.2Z" transform="translate(-8.589 -494.394)" fill="#fff"/><path d="M494.007,12.587h-1.565l1.32-.793A10.363,10.363,0,0,0,493,10.123l-4.008,2.464h-2.346l5.682-3.5c-.185-.251-.38-.49-.583-.719l-5.186,3.118v-6.3c-.338-.088-.68-.159-1.025-.213V13.23h8.627q-.064-.323-.15-.643" transform="translate(-473.511 -4.851)" fill="#fff"/><path d="M15.921,4.245v6.35L10.629,7.417A10.345,10.345,0,0,0,9.437,9.037l4.492,2.646H11.8L8.933,10c-.125.27-.238.545-.339.823l1.434.862h-1.7c-.057.213-.108.427-.151.643h8.772V4.048a10.376,10.376,0,0,0-1.025.2" transform="translate(-7.972 -3.948)" fill="#fff"/><path d="M494.14,506.943h-8.61v8.177a10.391,10.391,0,0,0,1.025-.211v-6.173l5.114,3.075a19.029,19.029,0,0,0,1.258-1.717l-4.147-2.534h2.051l2.6,1.556c.106-.234.2-.471.291-.711l-1.45-.871H494c.053-.2.1-.393.143-.592" transform="translate(-473.511 -494.394)" fill="#fff"/><path d="M61.009,530.865l-4.087,2.519a10.538,10.538,0,0,0,.606.927c.036.049.074.1.111.143l5.824-3.59Z" transform="translate(-55.513 -517.724)" fill="#e9332b"/><path d="M616.829,531.9l4.147,2.534a10.417,10.417,0,0,0,.5-.977l-2.6-1.556Z" transform="translate(-601.56 -518.729)" fill="#e9332b"/><path d="M532.8,174.675l4.008-2.464a10.535,10.535,0,0,0-.652-1.01l-.019-.025-5.682,3.5Z" transform="translate(-517.322 -166.939)" fill="#e9332b"/><path d="M43.817,208.252l-4.492-2.646a10.381,10.381,0,0,0-.5.961l2.862,1.686Z" transform="translate(-37.86 -200.516)" fill="#e9332b"/><path d="M20.646,8.379H12.019V.123A10.459,10.459,0,0,0,8.975.1V8.379H.2a10.452,10.452,0,0,0,.016,4.17H8.975v8.2a10.452,10.452,0,0,0,3.044-.02V12.549h8.61a10.454,10.454,0,0,0,.017-4.17" transform="translate(0 0)" fill="#e9332b"/></g></svg>