<svg xmlns="http://www.w3.org/2000/svg" width="28.859" height="26.815" viewBox="0 0 28.859 26.815"><path d="M-3210.7-1596.776a.98.98,0,0,1,0,1.4.979.979,0,0,1-1.4,0l-1.582-1.583v8.007a5.281,5.281,0,0,1-1.528,3.724h-.019a5.218,5.218,0,0,1-3.7,1.546h-2.216a.994.994,0,0,1-.987-.987v-7.653a2.674,2.674,0,0,0-.782-1.9h-.019a2.614,2.614,0,0,0-1.9-.8,2.713,2.713,0,0,0-1.917.783v.018a2.613,2.613,0,0,0-.8,1.9v7.281a.836.836,0,0,1,.074.373.994.994,0,0,1-.987.987h-2.291a5.253,5.253,0,0,1-3.706-1.546h0a5.265,5.265,0,0,1-1.546-3.724v-8.007l-1.582,1.583a.979.979,0,0,1-1.4,0,1.013,1.013,0,0,1,0-1.4l13.445-13.445a1.013,1.013,0,0,1,1.4,0Zm-9.46,11.117h1.229a3.277,3.277,0,0,0,2.327-.969,3.279,3.279,0,0,0,.968-2.328v-9.981l-9.2-9.2-9.2,9.2v9.981a3.279,3.279,0,0,0,.968,2.328h0a3.271,3.271,0,0,0,2.309.969h1.229v-6.667a4.744,4.744,0,0,1,1.378-3.3h0a4.673,4.673,0,0,1,3.314-1.378,4.6,4.6,0,0,1,3.3,1.378h0a4.632,4.632,0,0,1,1.378,3.3Z" transform="translate(3239.264 1610.5)" fill="#fff"/></svg>