<svg xmlns="http://www.w3.org/2000/svg" width="18" height="18" viewBox="0 0 18 18"><path d="M12.375,3.375a9,9,0,1,0,9,9A9,9,0,0,0,12.375,3.375ZM14.737,4.95A7.808,7.808,0,0,1,19.8,10.012l-3.842.26A4.155,4.155,0,0,0,14.491,8.8ZM6.867,6.867A7.733,7.733,0,0,1,10.012,4.95L10.259,8.8a4.25,4.25,0,0,0-1.467,1.467l-3.847-.255A7.819,7.819,0,0,1,6.867,6.867ZM10.012,19.8A7.808,7.808,0,0,1,4.95,14.737L8.8,14.491a4.189,4.189,0,0,0,1.463,1.462Zm2.362-4.483a2.942,2.942,0,1,1,2.942-2.942A2.945,2.945,0,0,1,12.375,15.317Zm5.508,2.566A7.761,7.761,0,0,1,14.737,19.8l-.255-3.847a4.168,4.168,0,0,0,1.475-1.48l3.842.26A7.748,7.748,0,0,1,17.883,17.883Z" transform="translate(-3.375 -3.375)" fill="#404041"/></svg>