<svg xmlns="http://www.w3.org/2000/svg" width="13.999" height="14" viewBox="0 0 13.999 14"><g transform="translate(-2.5 -2.318)"><path d="M13.337,18.129H4.292A1.794,1.794,0,0,1,2.5,16.337V7.292A1.794,1.794,0,0,1,4.292,5.5H8.815a.5.5,0,0,1,0,1H4.292a.793.793,0,0,0-.792.792v9.045a.793.793,0,0,0,.792.792h9.045a.793.793,0,0,0,.792-.792V11.815a.5.5,0,0,1,1,0v4.523A1.794,1.794,0,0,1,13.337,18.129Z" transform="translate(0 -1.811)" fill="#fff"/><path d="M19.753,2.318a1.871,1.871,0,0,1,1.323,3.193l-6.138,6.138a.5.5,0,0,1-.232.132l-2.584.646a.5.5,0,0,1-.606-.606l.646-2.584A.5.5,0,0,1,12.293,9L18.43,2.866A1.858,1.858,0,0,1,19.753,2.318Zm-5.424,8.526,6.04-6.04a.871.871,0,0,0-1.231-1.231L13.1,9.613l-.41,1.642Z" transform="translate(-5.124)" fill="#fff"/></g></svg>