<svg xmlns="http://www.w3.org/2000/svg" width="21.81" height="17.041" viewBox="0 0 21.81 17.041"><g transform="translate(-129.595 -200.48)"><path d="M0,8.708V8.026A1.022,1.022,0,0,1,1.022,7H16.357V4.959A1.023,1.023,0,0,1,18.1,4.236L21.51,7.644a1.022,1.022,0,0,1,0,1.446L18.1,12.5a1.023,1.023,0,0,1-1.745-.723V9.73H1.022A1.022,1.022,0,0,1,0,8.708Zm20.787,6.475H5.452V13.138a1.023,1.023,0,0,0-1.745-.723L.3,15.823a1.022,1.022,0,0,0,0,1.446l3.408,3.408a1.023,1.023,0,0,0,1.745-.723V17.909H20.787a1.022,1.022,0,0,0,1.022-1.022V16.2A1.022,1.022,0,0,0,20.787,15.182Z" transform="translate(129.595 196.544)" fill="#fff"/></g></svg>