<svg xmlns="http://www.w3.org/2000/svg" xmlns:xlink="http://www.w3.org/1999/xlink" width="24.254" height="26.581" viewBox="0 0 24.254 26.581"><defs><clipPath id="a"><rect width="24.254" height="26.581" fill="none"/></clipPath></defs><g clip-path="url(#a)"><g transform="translate(-247.778 -970.462)"><path d="M-1019.636,1750.282h8.791v-.525a4.375,4.375,0,0,0-1.3-3.092,4.355,4.355,0,0,0-3.093-1.283,4.351,4.351,0,0,0-3.092,1.283,4.363,4.363,0,0,0-1.3,3.092Zm10.851.074a6.333,6.333,0,0,1,3.345,1.749,6.2,6.2,0,0,1,1.828,4.395v7.177a6.2,6.2,0,0,1-1.828,4.4,6.118,6.118,0,0,1-4.375,1.828h-11.846a6.158,6.158,0,0,1-4.376-1.828,6.206,6.206,0,0,1-1.828-4.4V1756.5a6.2,6.2,0,0,1,1.828-4.395,6.158,6.158,0,0,1,4.337-1.829v-.52a6.445,6.445,0,0,1,1.906-4.55,6.436,6.436,0,0,1,4.55-1.886,6.42,6.42,0,0,1,4.552,1.886,6.439,6.439,0,0,1,1.906,4.55Zm-1.03,1.984h-11.846a4.164,4.164,0,0,0-2.936,1.226,4.2,4.2,0,0,0-1.206,2.936v7.177a4.164,4.164,0,0,0,1.206,2.936,4.162,4.162,0,0,0,2.936,1.226h11.846a4.16,4.16,0,0,0,2.936-1.226,4.172,4.172,0,0,0,1.226-2.936V1756.5a4.214,4.214,0,0,0-1.226-2.936A4.161,4.161,0,0,0-1009.815,1752.34Z" transform="translate(1275.643 -772.858)" fill="#fff"/><path d="M-1016.839,1753.477a1.019,1.019,0,0,1-1.01,1.03h0a1.025,1.025,0,0,1-1.03-1.019v-2.6a1.024,1.024,0,0,1,1.019-1.03h.011a1.021,1.021,0,0,1,1.011,1.03h0Z" transform="translate(1280.617 -769.239)" fill="#fff"/><path d="M-1020.256,1753.477a1.019,1.019,0,0,1-1.01,1.03h0a1.025,1.025,0,0,1-1.03-1.019v-2.6a1.025,1.025,0,0,1,1.019-1.03h.011a1.02,1.02,0,0,1,1.011,1.03h0Z" transform="translate(1278.725 -769.239)" fill="#fff"/></g></g></svg>