<svg xmlns="http://www.w3.org/2000/svg" width="221.253" height="154.692" viewBox="0 0 221.253 154.692"><g transform="translate(-134.437 -308.308)"><path d="M-3836.531-658.154l-.077,90.036s17.842,3.608,31.324,9.663a111.455,111.455,0,0,1,23.422,14.415l-.032-86.638A79.833,79.833,0,0,0-3803.95-647.4C-3817.432-654.23-3836.531-658.154-3836.531-658.154Z" transform="translate(4005.454 966.461)" fill="#5db6ae"/><path d="M-3902.857-606.793l-24.706-3.776v90.852l89.067,15.047s-14.092-12.268-30.182-18.69-34.179-7-34.179-7Z" transform="translate(4062 936.879)" fill="#f4c447"/><path d="M-3886.381-340.876v17.1l72.97-8.3Z" transform="translate(4036.397 769.213)" fill="#fff"/><path d="M-3809.845-295.025v13.3l44.376-19.761Z" transform="translate(3988.816 744.724)" fill="#fff" opacity="0.208"/><text transform="translate(248.69 407.438)" fill="#fff" font-size="27" font-family="Helvetica-Light, Helvetica" font-weight="300"><tspan x="0" y="0">BADDEL</tspan><tspan font-family="Helvetica" font-weight="400"><tspan x="0" y="33">BOOK</tspan></tspan></text></g></svg>