<svg xmlns="http://www.w3.org/2000/svg" width="49.278" height="85.5" viewBox="0 0 49.278 85.5"><g transform="translate(-346 -94.5)"><path d="M-3836.565-658.154l-.042,49.764a97.188,97.188,0,0,1,17.313,5.341,61.607,61.607,0,0,1,12.946,7.967l-.018-47.886a44.124,44.124,0,0,0-12.191-9.243C-3826.009-655.985-3836.565-658.154-3836.565-658.154Z" transform="translate(4201.625 752.654)" fill="#5db6ae"/><path d="M-3913.908-608.482l-13.655-2.087v50.215l49.229,8.317a67.5,67.5,0,0,0-16.682-10.33,63.776,63.776,0,0,0-18.892-3.868Z" transform="translate(4273.563 715.019)" fill="#f4c447"/><path d="M-3886.381-340.876v9.452l40.332-4.587Z" transform="translate(4240.991 501.717)" fill="#fff"/><path d="M-3809.845-297.914v7.352l24.527-10.922Z" transform="translate(4180.459 470.563)" fill="#fff" opacity="0.208"/></g></svg>